<?xml version="1.0" ?><svg viewBox="0 0 141.42 141.42" xmlns="http://www.w3.org/2000/svg"><defs><style>.cls-1{isolation:isolate;}.cls-2{fill:#bd081c;}.cls-3{opacity:0.3;mix-blend-mode:overlay;}.cls-4{fill:#fff;}</style></defs><title/><g class="cls-1"><g data-name="Layer 2" id="Layer_2"><g data-name="Layer 11" id="Layer_11"><rect class="cls-2" height="141.42" rx="10" ry="10" width="141.42"/><g class="cls-3" data-name="Layer 22" id="Layer_22"><path d="M91.66,42.21l-2.51-.69L72.71,39,58,42,47.71,55l-.36,18.73L60.54,86.88l-5.62,19.64,34.9,34.9h41.6a10,10,0,0,0,10-10V92Z"/></g><path class="cls-4" d="M72.4,34.71c-19.65,0-29.56,14.09-29.56,25.84,0,7.11,2.7,13.44,8.47,15.79a1.42,1.42,0,0,0,2.07-1c.19-.72.64-2.55.85-3.32a2,2,0,0,0-.6-2.3,12,12,0,0,1-2.73-8.11c0-10.45,7.82-19.81,20.36-19.81,11.11,0,17.21,6.79,17.21,15.85,0,11.92-5.28,22-13.11,22-4.33,0-7.57-3.58-6.53-8C70.07,66.4,72.48,60.75,72.48,57c0-3.38-1.82-6.2-5.58-6.2-4.42,0-8,4.57-8,10.7A15.89,15.89,0,0,0,60.25,68s-4.53,19.18-5.32,22.54c-1.58,6.69-.24,14.89-.13,15.71a.55.55,0,0,0,1,.24c.4-.53,5.67-7,7.46-13.53.51-1.84,2.91-11.37,2.91-11.37,1.44,2.74,5.64,5.15,10.1,5.15,13.3,0,22.32-12.11,22.32-28.34C98.58,46.14,88.19,34.71,72.4,34.71Z"/></g></g></g></svg>