<?xml version="1.0" ?><svg viewBox="0 0 141.42 141.42" xmlns="http://www.w3.org/2000/svg"><defs><style>.cls-1{isolation:isolate;}.cls-2{fill:#262626;}.cls-3{opacity:0.3;mix-blend-mode:overlay;}.cls-4{fill:#fff;}</style></defs><title/><g class="cls-1"><g data-name="Layer 2" id="Layer_2"><g data-name="Layer 10" id="Layer_10"><rect class="cls-2" height="141.42" rx="10" ry="10" width="141.42"/><g class="cls-3" data-name="Layer 23" id="Layer_23"><path d="M102.7,39.45l-.51.83L102,47.71l.25,35.55-.75,14.2L90,103.21,64,103l-22-2L37.21,90.71l2.19,11.94,38.77,38.77h53.25a10,10,0,0,0,10-10V78.17Z"/></g><path class="cls-4" d="M92.59,35H48.83A13.81,13.81,0,0,0,35,48.83V92.59a13.81,13.81,0,0,0,13.79,13.79H92.59a13.81,13.81,0,0,0,13.79-13.79V48.83A13.81,13.81,0,0,0,92.59,35Zm4,8.22h1.57V55.35l-12.05,0L86,43.3Zm-36,20.13a12.52,12.52,0,1,1-2.38,7.32A12.55,12.55,0,0,1,60.53,63.39Zm38.9,29.2a6.85,6.85,0,0,1-6.84,6.84H48.83A6.85,6.85,0,0,1,42,92.59V63.39H52.64a19.5,19.5,0,1,0,36.14,0H99.43Z"/></g></g></g></svg>