<?xml version="1.0" ?><svg viewBox="0 0 141.42 141.42" xmlns="http://www.w3.org/2000/svg"><defs><style>.cls-1{isolation:isolate;}.cls-2{fill:#4285f4;}.cls-3{opacity:0.3;mix-blend-mode:overlay;}.cls-4{fill:#fff;}</style></defs><title/><g class="cls-1"><g data-name="Layer 2" id="Layer_2"><g data-name="Layer 8" id="Layer_8"><rect class="cls-2" height="141.42" rx="10" ry="10" width="141.42"/><path class="cls-3" d="M89.4,44.84H63L54.09,62.46,69.46,89.71l1.27,15.22,36.49,36.49h24.2a10,10,0,0,0,10-10V96.86Z"/><g data-name="Livello 110" id="Livello_110"><path class="cls-4" d="M82.74,61.38a12.5,12.5,0,1,1-12.5-12.44,12.47,12.47,0,0,1,12.5,12.44m13,0A25,25,0,1,0,51.48,77.27l19.25,27.66L90.27,76.87a25.16,25.16,0,0,0,1.92-2.76l.2-.29h0a24.66,24.66,0,0,0,3.35-12.44"/></g></g></g></g></svg>