<?xml version="1.0" ?><svg viewBox="0 0 141.42 141.42" xmlns="http://www.w3.org/2000/svg"><defs><style>.cls-1{isolation:isolate;}.cls-2{fill:#fffc00;}.cls-3{opacity:0.1;mix-blend-mode:darken;}.cls-4{fill:#fff;}</style></defs><title/><g class="cls-1"><g data-name="Layer 2" id="Layer_2"><g data-name="Layer 13" id="Layer_13"><rect class="cls-2" height="141.42" rx="10" ry="10" width="141.42"/><g class="cls-3" data-name="Layer 21" id="Layer_21"><path d="M85.59,40.18l-2.91-.59L63.88,51.38l-10,15.87-12.83.52L57.89,84.61l-9,3.46-15.79,4L82.4,141.42h49a10,10,0,0,0,10-10V96Z"/></g><path class="cls-4" d="M71.2,106.71h-1c-4.55,0-7.47-2.06-10.29-4.06-1.94-1.37-3.78-2.67-5.95-3a18.53,18.53,0,0,0-3.12-.27,21.78,21.78,0,0,0-4.33.49,9.1,9.1,0,0,1-1.61.24,1,1,0,0,1-1.13-.8c-.18-.62-.31-1.21-.43-1.78C43.05,96,42.82,95.11,42.2,95c-7.21-1.11-9.27-2.63-9.73-3.71a1.29,1.29,0,0,1-.11-.46A.82.82,0,0,1,33,90c11.08-1.82,16.05-13.14,16.25-13.63l0,0a4.25,4.25,0,0,0,.4-3.55c-.76-1.79-3.24-2.58-4.89-3.1-.4-.13-.78-.25-1.08-.37C40.47,68,40.19,66.7,40.32,66c.22-1.15,1.76-2,3-2a2.13,2.13,0,0,1,.9.18,9.53,9.53,0,0,0,4,1,3.21,3.21,0,0,0,2.35-.75c0-.75-.09-1.53-.14-2.34-.33-5.24-.74-11.75.92-15.46,5-11.14,15.5-12,18.61-12h1.55c3.12,0,13.67.87,18.64,12C91.77,50.44,91.36,57,91,62.19l0,.22c0,.73-.09,1.44-.12,2.12a3.17,3.17,0,0,0,2.15.75h0a10,10,0,0,0,3.72-1A2.76,2.76,0,0,1,97.91,64a3.39,3.39,0,0,1,1.33.26h0a2.45,2.45,0,0,1,1.86,2c0,.77-.58,1.92-3.45,3-.3.12-.68.24-1.08.37-1.65.52-4.12,1.31-4.88,3.1a4.18,4.18,0,0,0,.39,3.54l0,0c.21.49,5.17,11.81,16.25,13.63a.81.81,0,0,1,.68.85,1.29,1.29,0,0,1-.11.46c-.46,1.07-2.52,2.59-9.73,3.7-.59.09-.82.86-1.17,2.47-.12.59-.25,1.16-.43,1.77a1,1,0,0,1-1,.77H96.5a8.7,8.7,0,0,1-1.62-.21,21.43,21.43,0,0,0-4.33-.46,18.62,18.62,0,0,0-3.12.27c-2.17.36-4,1.66-6,3C78.66,104.65,75.74,106.71,71.2,106.71Z"/></g></g></g></svg>